<svg width="24" height="15" viewBox="0 0 24 15" fill="none" xmlns="http://www.w3.org/2000/svg">
<path d="M0.862962 1.26274C1.19114 0.934668 1.63617 0.750366 2.10021 0.750366C2.56425 0.750366 3.00929 0.934668 3.33746 1.26274L12 9.92524L20.6625 1.26274C20.9925 0.943966 21.4346 0.767575 21.8934 0.771562C22.3523 0.77555 22.7912 0.959596 23.1156 1.28406C23.4401 1.60852 23.6242 2.04745 23.6281 2.50629C23.6321 2.96513 23.4557 3.40719 23.137 3.73724L13.2372 13.637C12.909 13.9651 12.464 14.1494 12 14.1494C11.5359 14.1494 11.0909 13.9651 10.7627 13.637L0.862962 3.73724C0.534888 3.40907 0.350586 2.96403 0.350586 2.49999C0.350586 2.03596 0.534888 1.59092 0.862962 1.26274Z" fill="#1E1E1E"/>
</svg>

