<svg width="323" height="135" viewBox="0 0 323 135" fill="none" xmlns="http://www.w3.org/2000/svg">
    <path
        d="M154.243 133.113V2C154.243 1.17173 154.915 0.500247 155.743 0.5C156.571 0.5 157.243 1.17157 157.243 2V133.113C157.243 133.942 156.571 134.613 155.743 134.613C154.915 134.613 154.243 133.942 154.243 133.113ZM24.2429 125.113V10C24.2429 9.17172 24.9147 8.50025 25.7429 8.5C26.5713 8.5 27.2429 9.17157 27.2429 10V125.113C27.2429 125.942 26.5713 126.613 25.7429 126.613C24.9147 126.613 24.2429 125.942 24.2429 125.113ZM284.243 121.113V14C284.243 13.1717 284.915 12.5002 285.743 12.5C286.571 12.5 287.243 13.1716 287.243 14V121.113C287.243 121.942 286.571 122.613 285.743 122.613C284.915 122.613 284.243 121.942 284.243 121.113ZM59.6931 108.953V23.0869C59.6931 22.2586 60.3648 21.5871 61.1931 21.5869C62.0215 21.5869 62.6931 22.2585 62.6931 23.0869V108.953C62.6931 109.782 62.0215 110.453 61.1931 110.453C60.3648 110.453 59.6931 109.781 59.6931 108.953ZM189.693 108.953V23.0869C189.693 22.2586 190.365 21.5871 191.193 21.5869C192.022 21.5869 192.693 22.2585 192.693 23.0869V108.953C192.693 109.782 192.022 110.453 191.193 110.453C190.365 110.453 189.693 109.781 189.693 108.953ZM319.693 88.9531V43.0869C319.693 42.2586 320.365 41.587 321.193 41.5869C322.022 41.5869 322.693 42.2585 322.693 43.0869V88.9531C322.693 89.7816 322.022 90.4531 321.193 90.4531C320.365 90.453 319.693 89.7815 319.693 88.9531ZM0.626709 78.9434V53.0771C0.626709 52.2487 1.29828 51.5771 2.12671 51.5771C2.95514 51.5771 3.62671 52.2487 3.62671 53.0771V78.9434C3.6267 79.7718 2.95513 80.4434 2.12671 80.4434C1.29829 80.4434 0.626721 79.7718 0.626709 78.9434ZM130.627 108.943V23.0771C130.627 22.2487 131.298 21.5771 132.127 21.5771C132.955 21.5771 133.627 22.2487 133.627 23.0771V108.943C133.627 109.772 132.955 110.443 132.127 110.443C131.298 110.443 130.627 109.772 130.627 108.943ZM260.627 108.943V23.0771C260.627 22.2487 261.298 21.5771 262.127 21.5771C262.955 21.5771 263.627 22.2487 263.627 23.0771V108.943C263.627 109.772 262.955 110.443 262.127 110.443C261.298 110.443 260.627 109.772 260.627 108.943ZM47.8796 101.27V31.5596C47.8799 30.7315 48.5515 30.0598 49.3796 30.0596C50.2079 30.0596 50.8794 30.7313 50.8796 31.5596V101.27C50.8796 102.098 50.2081 102.77 49.3796 102.77C48.5514 102.769 47.8796 102.098 47.8796 101.27ZM177.88 101.27V31.5596C177.88 30.7315 178.552 30.0598 179.38 30.0596C180.208 30.0596 180.879 30.7313 180.88 31.5596V101.27C180.88 102.098 180.208 102.77 179.38 102.77C178.551 102.769 177.88 102.098 177.88 101.27ZM307.88 101.27V31.5596C307.88 30.7315 308.552 30.0598 309.38 30.0596C310.208 30.0596 310.879 30.7313 310.88 31.5596V101.27C310.88 102.098 310.208 102.77 309.38 102.77C308.551 102.769 307.88 102.098 307.88 101.27ZM71.6931 100.49V34.5264C71.6933 33.6982 72.3649 33.0265 73.1931 33.0264C74.0214 33.0264 74.693 33.6981 74.6931 34.5264V100.49C74.693 101.319 74.0215 101.99 73.1931 101.99C72.3649 101.99 71.6932 101.318 71.6931 100.49ZM201.693 100.49V34.5264C201.693 33.6982 202.365 33.0265 203.193 33.0264C204.021 33.0264 204.693 33.6981 204.693 34.5264V100.49C204.693 101.319 204.021 101.99 203.193 101.99C202.365 101.99 201.693 101.318 201.693 100.49ZM118.813 98.0234V34.79C118.813 33.9617 119.485 33.2901 120.313 33.29C121.142 33.29 121.813 33.9616 121.813 34.79V98.0234C121.813 98.8518 121.142 99.5234 120.313 99.5234C119.485 99.5234 118.813 98.8518 118.813 98.0234ZM248.813 98.0234V34.79C248.813 33.9617 249.485 33.2901 250.313 33.29C251.142 33.29 251.813 33.9616 251.813 34.79V98.0234C251.813 98.8518 251.142 99.5234 250.313 99.5234C249.485 99.5234 248.813 98.8518 248.813 98.0234ZM12.5671 92.4297V42.7129C12.5674 41.8847 13.2389 41.2129 14.0671 41.2129C14.8952 41.2131 15.5669 41.8848 15.5671 42.7129V92.4297C15.5671 93.258 14.8954 93.9295 14.0671 93.9297C13.2387 93.9297 12.5671 93.2581 12.5671 92.4297ZM142.567 92.4297V42.7129C142.567 41.8847 143.239 41.2129 144.067 41.2129C144.895 41.2131 145.567 41.8848 145.567 42.7129V92.4297C145.567 93.258 144.895 93.9295 144.067 93.9297C143.239 93.9297 142.567 93.2581 142.567 92.4297ZM272.567 92.4297V42.7129C272.567 41.8847 273.239 41.2129 274.067 41.2129C274.895 41.2131 275.567 41.8848 275.567 42.7129V92.4297C275.567 93.258 274.895 93.9294 274.067 93.9297C273.239 93.9297 272.567 93.2581 272.567 92.4297ZM83.4998 92.4199V42.7031C83.4999 41.8749 84.1715 41.2033 84.9998 41.2031C85.8281 41.2031 86.4996 41.8748 86.4998 42.7031V92.4199C86.4998 93.2483 85.8282 93.9199 84.9998 93.9199C84.1715 93.9198 83.4998 93.2483 83.4998 92.4199ZM36.0496 92.4131V42.6963C36.0498 41.8682 36.7215 41.1965 37.5496 41.1963C38.3779 41.1963 39.0494 41.868 39.0496 42.6963V92.4131C39.0496 93.2415 38.378 93.9131 37.5496 93.9131C36.7214 93.9128 36.0496 93.2414 36.0496 92.4131ZM166.051 92.4131V42.6963C166.051 41.868 166.722 41.1963 167.551 41.1963C168.379 41.1966 169.05 41.8682 169.051 42.6963V92.4131C169.051 93.2414 168.379 93.9128 167.551 93.9131C166.722 93.9131 166.051 93.2415 166.051 92.4131ZM296.05 92.4131V42.6963C296.05 41.8682 296.721 41.1965 297.55 41.1963C298.378 41.1963 299.049 41.868 299.05 42.6963V92.4131C299.05 93.2415 298.378 93.9131 297.55 93.9131C296.721 93.9128 296.05 93.2414 296.05 92.4131ZM106.983 92.4062V42.6865C106.983 41.8582 107.655 41.1866 108.483 41.1865C109.312 41.1865 109.983 41.8582 109.983 42.6865V92.4062C109.983 93.2347 109.312 93.9062 108.483 93.9062C107.655 93.9061 106.983 93.2346 106.983 92.4062ZM236.983 92.4062V42.6865C236.983 41.8582 237.655 41.1866 238.483 41.1865C239.312 41.1865 239.983 41.8582 239.983 42.6865V92.4062C239.983 93.2347 239.312 93.9062 238.483 93.9062C237.655 93.9061 236.983 93.2346 236.983 92.4062ZM213.5 89.9463V45.0664C213.5 44.2382 214.172 43.5666 215 43.5664C215.828 43.5664 216.5 44.2381 216.5 45.0664V89.9463C216.5 90.7747 215.828 91.4463 215 91.4463C214.171 91.4461 213.5 90.7746 213.5 89.9463ZM95.1765 88.9004V46.1934C95.1765 45.365 95.8482 44.6935 96.6765 44.6934C97.5049 44.6934 98.1765 45.3649 98.1765 46.1934V88.9004C98.1763 89.7286 97.5048 90.4004 96.6765 90.4004C95.8483 90.4003 95.1767 89.7286 95.1765 88.9004ZM225.177 88.9004V46.1934C225.177 45.365 225.848 44.6935 226.677 44.6934C227.505 44.6934 228.177 45.3649 228.177 46.1934V88.9004C228.176 89.7286 227.505 90.4004 226.677 90.4004C225.848 90.4003 225.177 89.7286 225.177 88.9004Z"
        fill="black" />
</svg>
    