<svg width="1440" height="169" viewBox="0 0 1440 169" fill="none" xmlns="http://www.w3.org/2000/svg">
<path d="M-94 10.6006C-84.6667 24.0823 -34.6 51.0457 91 51.0457C248 51.0457 294 1 374.5 1C455 1 611 114.573 764.5 114.573C918 114.573 898 32.253 1056 32.253C1214 32.253 1230.5 73.311 1322 73.311C1395.2 73.311 1431.17 49.6158 1440 37.7683" stroke="#CACACA" stroke-width="2"/>
<path d="M-94 21.1737C-84.6667 34.6554 -34.6 61.6188 91 61.6188C248 61.6188 294 11.5731 374.5 11.5731C455 11.5731 611 125.146 764.5 125.146C918 125.146 898 42.8262 1056 42.8262C1214 42.8262 1230.5 83.8841 1322 83.8841C1395.2 83.8841 1431.17 60.189 1440 48.3414" stroke="#CACACA" stroke-width="2"/>
<path d="M-94 31.7468C-84.6667 45.2286 -34.6 72.192 91 72.192C248 72.192 294 22.1462 374.5 22.1462C455 22.1462 611 135.719 764.5 135.719C918 135.719 898 53.3993 1056 53.3993C1214 53.3993 1230.5 94.4572 1322 94.4572C1395.2 94.4572 1431.17 70.7621 1440 58.9145" stroke="#CACACA" stroke-width="2"/>
<path d="M-94 42.32C-84.6667 55.8017 -34.6 82.7651 91 82.7651C248 82.7651 294 32.7194 374.5 32.7194C455 32.7194 611 146.293 764.5 146.293C918 146.293 898 63.9724 1056 63.9724C1214 63.9724 1230.5 105.03 1322 105.03C1395.2 105.03 1431.17 81.3352 1440 69.4877" stroke="#CACACA" stroke-width="2"/>
<path d="M-94 52.8931C-84.6667 66.3748 -34.6 93.3382 91 93.3382C248 93.3382 294 43.2925 374.5 43.2925C455 43.2925 611 156.866 764.5 156.866C918 156.866 898 74.5455 1056 74.5455C1214 74.5455 1230.5 115.603 1322 115.603C1395.2 115.603 1431.17 91.9083 1440 80.0608" stroke="#CACACA" stroke-width="2"/>
<path d="M-94 63.4662C-84.6667 76.9479 -34.6 103.911 91 103.911C248 103.911 294 53.8656 374.5 53.8656C455 53.8656 611 167.439 764.5 167.439C918 167.439 898 85.1186 1056 85.1186C1214 85.1186 1230.5 126.177 1322 126.177C1395.2 126.177 1431.17 102.481 1440 90.6339" stroke="#CACACA" stroke-width="2"/>
</svg>
