<svg width="340" height="74" viewBox="0 0 340 74" fill="none" xmlns="http://www.w3.org/2000/svg">
    <path
        d="M47.4197 72.992V1.00805C47.4197 0.451416 48.0937 0.000155142 48.9248 0C49.756 0 50.4298 0.451321 50.4298 1.00805V72.992C50.4298 73.5487 49.756 74 48.9248 74C48.0937 73.9998 47.4197 73.5486 47.4197 72.992ZM82.9899 51.3792V20.5555C82.9899 19.9988 83.6638 19.5475 84.4949 19.5474C85.3262 19.5474 86 19.9988 86 20.5555V51.3792C86 51.9359 85.3262 52.3872 84.4949 52.3872C83.6638 52.3872 82.9899 51.9359 82.9899 51.3792ZM23.7236 64.8133V7.10822C23.7236 6.55148 24.3974 6.10016 25.2286 6.10016C26.0599 6.10016 26.7337 6.55148 26.7337 7.10822V64.8133C26.7337 65.3701 26.0599 65.8214 25.2286 65.8214C24.3974 65.8214 23.7236 65.3701 23.7236 64.8133ZM71.1364 59.6563V12.8087C71.1366 12.2522 71.8106 11.8008 72.6415 11.8006C73.4726 11.8006 74.1463 12.2521 74.1465 12.8087V59.6563C74.1465 60.213 73.4727 60.6643 72.6415 60.6643C71.8104 60.6642 71.1364 60.2129 71.1364 59.6563ZM11.8701 57.4748V14.9797C11.8701 14.423 12.544 13.9717 13.3752 13.9716C14.2064 13.9716 14.8803 14.423 14.8803 14.9797V57.4748C14.8802 58.0315 14.2064 58.4828 13.3752 58.4828C12.5441 58.4828 11.8702 58.0314 11.8701 57.4748ZM35.7044 53.7156V20.3041C35.7046 19.7475 36.3784 19.2961 37.2095 19.2961C38.0403 19.2962 38.7143 19.7476 38.7146 20.3041V53.7156C38.7146 54.2722 38.0405 54.7235 37.2095 54.7236C36.3782 54.7236 35.7044 54.2723 35.7044 53.7156ZM59.2663 53.7044V20.293C59.2665 19.7365 59.9405 19.2851 60.7714 19.2849C61.6025 19.2849 62.2762 19.7364 62.2764 20.293V53.7044C62.2764 54.2611 61.6026 54.7125 60.7714 54.7125C59.9403 54.7123 59.2663 54.261 59.2663 53.7044ZM0 53.6998V20.2864C7.85821e-05 19.7298 0.673999 19.2784 1.50508 19.2784C2.33626 19.2784 3.01007 19.7297 3.01015 20.2864V53.6998C3.01015 54.2565 2.33631 54.7079 1.50508 54.7079C0.673951 54.7078 0 54.2565 0 53.6998Z"
        fill="#070036" />
    <path
        d="M114.08 55C113.803 55 113.56 54.896 113.352 54.688C113.144 54.48 113.04 54.2373 113.04 53.96C113.04 53.7867 113.057 53.596 113.092 53.388L125.988 19.744C126.127 19.3973 126.317 19.12 126.56 18.912C126.803 18.704 127.167 18.6 127.652 18.6H131.188C131.639 18.6 131.985 18.704 132.228 18.912C132.505 19.12 132.713 19.3973 132.852 19.744L145.696 53.388C145.765 53.596 145.8 53.7867 145.8 53.96C145.8 54.2373 145.696 54.48 145.488 54.688C145.28 54.896 145.037 55 144.76 55H142.108C141.692 55 141.38 54.896 141.172 54.688C140.999 54.48 140.877 54.2893 140.808 54.116L137.948 46.732H120.892L118.032 54.116C117.997 54.2893 117.876 54.48 117.668 54.688C117.46 54.896 117.148 55 116.732 55H114.08ZM122.4 42.26H136.44L129.42 23.8L122.4 42.26ZM161.299 55.52C158.838 55.52 156.706 55.052 154.903 54.116C153.135 53.1453 151.766 51.776 150.795 50.008C149.825 48.2053 149.305 46.056 149.235 43.56C149.201 43.04 149.183 42.3467 149.183 41.48C149.183 40.6133 149.201 39.92 149.235 39.4C149.305 36.904 149.825 34.772 150.795 33.004C151.766 31.2013 153.135 29.832 154.903 28.896C156.706 27.9253 158.838 27.44 161.299 27.44C163.31 27.44 165.026 27.7173 166.447 28.272C167.903 28.8267 169.099 29.5373 170.035 30.404C170.971 31.2707 171.665 32.2067 172.115 33.212C172.601 34.2173 172.861 35.1707 172.895 36.072C172.93 36.4187 172.826 36.696 172.583 36.904C172.341 37.112 172.046 37.216 171.699 37.216H169.203C168.857 37.216 168.597 37.1467 168.423 37.008C168.25 36.8347 168.077 36.5573 167.903 36.176C167.279 34.4773 166.43 33.2813 165.355 32.588C164.281 31.8947 162.946 31.548 161.351 31.548C159.271 31.548 157.573 32.1893 156.255 33.472C154.973 34.7547 154.279 36.8173 154.175 39.66C154.141 40.908 154.141 42.1213 154.175 43.3C154.279 46.1773 154.973 48.2573 156.255 49.54C157.573 50.788 159.271 51.412 161.351 51.412C162.946 51.412 164.281 51.0653 165.355 50.372C166.43 49.6787 167.279 48.4827 167.903 46.784C168.077 46.4027 168.25 46.1427 168.423 46.004C168.597 45.8307 168.857 45.744 169.203 45.744H171.699C172.046 45.744 172.341 45.848 172.583 46.056C172.826 46.264 172.93 46.5413 172.895 46.888C172.861 47.616 172.705 48.3613 172.427 49.124C172.15 49.8867 171.699 50.6667 171.075 51.464C170.486 52.2267 169.741 52.92 168.839 53.544C167.938 54.1333 166.846 54.6187 165.563 55C164.315 55.3467 162.894 55.52 161.299 55.52ZM189.835 55.52C186.264 55.52 183.421 54.428 181.307 52.244C179.192 50.0253 178.031 47.0093 177.823 43.196C177.788 42.7453 177.771 42.1733 177.771 41.48C177.771 40.752 177.788 40.1627 177.823 39.712C177.961 37.2507 178.533 35.1013 179.539 33.264C180.544 31.392 181.913 29.9533 183.647 28.948C185.415 27.9427 187.477 27.44 189.835 27.44C192.469 27.44 194.671 27.9947 196.439 29.104C198.241 30.2133 199.611 31.7907 200.547 33.836C201.483 35.8813 201.951 38.2733 201.951 41.012V41.896C201.951 42.2773 201.829 42.572 201.587 42.78C201.379 42.988 201.101 43.092 200.755 43.092H182.763C182.763 43.1267 182.763 43.196 182.763 43.3C182.763 43.404 182.763 43.4907 182.763 43.56C182.832 44.9813 183.144 46.316 183.699 47.564C184.253 48.7773 185.051 49.7653 186.091 50.528C187.131 51.2907 188.379 51.672 189.835 51.672C191.083 51.672 192.123 51.4813 192.955 51.1C193.787 50.7187 194.463 50.3027 194.983 49.852C195.503 49.3667 195.849 49.0027 196.023 48.76C196.335 48.3093 196.577 48.0493 196.751 47.98C196.924 47.876 197.201 47.824 197.583 47.824H200.079C200.425 47.824 200.703 47.928 200.911 48.136C201.153 48.3093 201.257 48.5693 201.223 48.916C201.188 49.436 200.911 50.0773 200.391 50.84C199.871 51.568 199.125 52.296 198.155 53.024C197.184 53.752 196.005 54.3587 194.619 54.844C193.232 55.2947 191.637 55.52 189.835 55.52ZM182.763 39.504H197.011V39.348C197.011 37.788 196.716 36.4013 196.127 35.188C195.572 33.9747 194.757 33.0213 193.683 32.328C192.608 31.6 191.325 31.236 189.835 31.236C188.344 31.236 187.061 31.6 185.987 32.328C184.947 33.0213 184.149 33.9747 183.595 35.188C183.04 36.4013 182.763 37.788 182.763 39.348V39.504ZM209.364 55C209.018 55 208.723 54.896 208.48 54.688C208.272 54.4453 208.168 54.1507 208.168 53.804V29.156C208.168 28.8093 208.272 28.532 208.48 28.324C208.723 28.0813 209.018 27.96 209.364 27.96H211.808C212.155 27.96 212.432 28.0813 212.64 28.324C212.883 28.532 213.004 28.8093 213.004 29.156V31.444C213.906 30.2653 215.032 29.312 216.384 28.584C217.771 27.8213 219.539 27.44 221.688 27.44C223.942 27.44 225.848 27.9427 227.408 28.948C229.003 29.9187 230.199 31.288 230.996 33.056C231.794 34.7893 232.192 36.8173 232.192 39.14V53.804C232.192 54.1507 232.088 54.4453 231.88 54.688C231.672 54.896 231.395 55 231.048 55H228.448C228.102 55 227.807 54.896 227.564 54.688C227.356 54.4453 227.252 54.1507 227.252 53.804V39.4C227.252 36.9733 226.663 35.084 225.484 33.732C224.306 32.3453 222.572 31.652 220.284 31.652C218.135 31.652 216.402 32.3453 215.084 33.732C213.802 35.084 213.16 36.9733 213.16 39.4V53.804C213.16 54.1507 213.039 54.4453 212.796 54.688C212.588 54.896 212.311 55 211.964 55H209.364ZM249.904 55C247.963 55 246.385 54.636 245.172 53.908C243.959 53.1453 243.075 52.088 242.52 50.736C241.965 49.3493 241.688 47.72 241.688 45.848V32.12H237.632C237.285 32.12 236.991 32.016 236.748 31.808C236.54 31.5653 236.436 31.2707 236.436 30.924V29.156C236.436 28.8093 236.54 28.532 236.748 28.324C236.991 28.0813 237.285 27.96 237.632 27.96H241.688V19.276C241.688 18.9293 241.792 18.652 242 18.444C242.243 18.2013 242.537 18.08 242.884 18.08H245.328C245.675 18.08 245.952 18.2013 246.16 18.444C246.403 18.652 246.524 18.9293 246.524 19.276V27.96H252.972C253.319 27.96 253.596 28.0813 253.804 28.324C254.047 28.532 254.168 28.8093 254.168 29.156V30.924C254.168 31.2707 254.047 31.5653 253.804 31.808C253.596 32.016 253.319 32.12 252.972 32.12H246.524V45.484C246.524 47.1133 246.801 48.396 247.356 49.332C247.911 50.268 248.899 50.736 250.32 50.736H253.492C253.839 50.736 254.116 50.8573 254.324 51.1C254.567 51.308 254.688 51.5853 254.688 51.932V53.804C254.688 54.1507 254.567 54.4453 254.324 54.688C254.116 54.896 253.839 55 253.492 55H249.904ZM270.737 55.52C268.102 55.52 265.901 55.0173 264.133 54.012C262.365 53.0067 261.013 51.62 260.077 49.852C259.141 48.0493 258.621 46.004 258.517 43.716C258.482 43.1267 258.465 42.3813 258.465 41.48C258.465 40.544 258.482 39.7987 258.517 39.244C258.621 36.9213 259.141 34.876 260.077 33.108C261.047 31.34 262.417 29.9533 264.185 28.948C265.953 27.9427 268.137 27.44 270.737 27.44C273.337 27.44 275.521 27.9427 277.289 28.948C279.057 29.9533 280.409 31.34 281.345 33.108C282.315 34.876 282.853 36.9213 282.957 39.244C282.991 39.7987 283.009 40.544 283.009 41.48C283.009 42.3813 282.991 43.1267 282.957 43.716C282.853 46.004 282.333 48.0493 281.397 49.852C280.461 51.62 279.109 53.0067 277.341 54.012C275.573 55.0173 273.371 55.52 270.737 55.52ZM270.737 51.516C272.886 51.516 274.602 50.84 275.885 49.488C277.167 48.1013 277.861 46.0907 277.965 43.456C277.999 42.936 278.017 42.2773 278.017 41.48C278.017 40.6827 277.999 40.024 277.965 39.504C277.861 36.8693 277.167 34.876 275.885 33.524C274.602 32.1373 272.886 31.444 270.737 31.444C268.587 31.444 266.854 32.1373 265.537 33.524C264.254 34.876 263.578 36.8693 263.509 39.504C263.474 40.024 263.456 40.6827 263.456 41.48C263.456 42.2773 263.474 42.936 263.509 43.456C263.578 46.0907 264.254 48.1013 265.537 49.488C266.854 50.84 268.587 51.516 270.737 51.516Z"
        fill="#070036" />
    <path
        d="M289.844 55C289.497 55 289.203 54.896 288.96 54.688C288.752 54.4453 288.648 54.1507 288.648 53.804V50.06C288.648 49.7133 288.752 49.436 288.96 49.228C289.203 48.9853 289.497 48.864 289.844 48.864H293.588C293.935 48.864 294.212 48.9853 294.42 49.228C294.663 49.436 294.784 49.7133 294.784 50.06V53.804C294.784 54.1507 294.663 54.4453 294.42 54.688C294.212 54.896 293.935 55 293.588 55H289.844ZM309.654 55.52C307.92 55.52 306.343 55.1733 304.922 54.48C303.5 53.7867 302.356 52.8507 301.49 51.672C300.623 50.4933 300.19 49.1587 300.19 47.668C300.19 45.276 301.16 43.3693 303.102 41.948C305.043 40.5267 307.574 39.5907 310.694 39.14L318.442 38.048V36.54C318.442 34.876 317.956 33.576 316.986 32.64C316.05 31.704 314.507 31.236 312.358 31.236C310.798 31.236 309.532 31.548 308.562 32.172C307.626 32.796 306.967 33.5933 306.586 34.564C306.378 35.084 306.014 35.344 305.494 35.344H303.154C302.772 35.344 302.478 35.24 302.27 35.032C302.096 34.7893 302.01 34.512 302.01 34.2C302.01 33.68 302.2 33.0387 302.582 32.276C302.998 31.5133 303.622 30.768 304.454 30.04C305.286 29.312 306.343 28.7053 307.626 28.22C308.943 27.7 310.538 27.44 312.41 27.44C314.49 27.44 316.24 27.7173 317.662 28.272C319.083 28.792 320.192 29.5027 320.99 30.404C321.822 31.3053 322.411 32.328 322.758 33.472C323.139 34.616 323.33 35.7773 323.33 36.956V53.804C323.33 54.1507 323.208 54.4453 322.966 54.688C322.758 54.896 322.48 55 322.134 55H319.742C319.36 55 319.066 54.896 318.858 54.688C318.65 54.4453 318.546 54.1507 318.546 53.804V51.568C318.095 52.192 317.488 52.816 316.726 53.44C315.963 54.0293 315.01 54.532 313.866 54.948C312.722 55.3293 311.318 55.52 309.654 55.52ZM310.746 51.62C312.167 51.62 313.467 51.3253 314.646 50.736C315.824 50.112 316.743 49.1587 317.402 47.876C318.095 46.5933 318.442 44.9813 318.442 43.04V41.584L312.41 42.468C309.948 42.8147 308.094 43.404 306.846 44.236C305.598 45.0333 304.974 46.056 304.974 47.304C304.974 48.2747 305.251 49.0893 305.806 49.748C306.395 50.372 307.123 50.84 307.99 51.152C308.891 51.464 309.81 51.62 310.746 51.62ZM332.001 55C331.654 55 331.36 54.896 331.117 54.688C330.909 54.4453 330.805 54.1507 330.805 53.804V29.156C330.805 28.8093 330.909 28.532 331.117 28.324C331.36 28.0813 331.654 27.96 332.001 27.96H334.497C334.844 27.96 335.121 28.0813 335.329 28.324C335.537 28.532 335.641 28.8093 335.641 29.156V53.804C335.641 54.1507 335.537 54.4453 335.329 54.688C335.121 54.896 334.844 55 334.497 55H332.001ZM331.585 22.916C331.238 22.916 330.944 22.812 330.701 22.604C330.493 22.3613 330.389 22.0667 330.389 21.72V18.912C330.389 18.5653 330.493 18.288 330.701 18.08C330.944 17.8373 331.238 17.716 331.585 17.716H334.861C335.208 17.716 335.485 17.8373 335.693 18.08C335.936 18.288 336.057 18.5653 336.057 18.912V21.72C336.057 22.0667 335.936 22.3613 335.693 22.604C335.485 22.812 335.208 22.916 334.861 22.916H331.585Z"
        fill="#BCAEEC" />
</svg>
    